<svg xmlns="http://www.w3.org/2000/svg" viewBox="0 0 64 64" role="img">
  <path fill="#155EEF" stroke="#101631" stroke-width="3" d="M32 3 40 9l10-1 3 10 8 6-5 9 1 10-10 3-6 9-9-5-9 5-6-9-10-3 1-10-5-9 8-6 3-10 10 1z"/>
  <path fill="#FFCB2F" stroke="#101631" stroke-width="3" d="M32 15 47 26l-6 18H23l-6-18z"/>
  <circle cx="26" cy="31" r="4" fill="#101631"/>
  <circle cx="38" cy="31" r="4" fill="#101631"/>
  <path fill="#101631" d="M27 40h10l-2 5h-6z"/>
  <path fill="#F42F8C" d="m15 13 5-2 2 5-5 2zM47 48l5-2 2 5-5 2z"/>
</svg>
